<svg width="403" height="167" viewBox="0 0 403 167" fill="none" xmlns="http://www.w3.org/2000/svg">
<!-- <style>
     path{
         fill:blue;
     }
     :hover{
         fill:red;
     }
   </style> -->

<path d="M16.8857 64.7031C30.1572 64.7031 36.5293 57.584 41.583 45.8506L61.0068 0.586914H41.2754L31.5195 29.9863H31.168L20.4893 0.586914H0.757812L21.1924 47.3008C19.2588 49.5859 16.666 49.9375 13.6777 49.9375C10.5137 49.9375 9.45898 49.498 9.45898 49.498V64C9.45898 64 12.8867 64.7031 16.8857 64.7031ZM120.201 43.082C120.201 30.8213 110.313 22.9551 95.7676 22.9551H86.2754V15.3525H114.84V0.586914H67.6426V64H96.6025C110.709 64 120.201 55.8701 120.201 43.082ZM86.2754 49.9375V36.0947H91.9443C97.7451 36.0947 101.217 38.4238 101.217 43.0381C101.217 47.6084 97.7451 49.9375 92.0762 49.9375H86.2754ZM127.232 0.586914V64H145.865V46.6855H154.918C169.728 46.6855 179.791 37.6768 179.791 23.7021C179.791 9.5957 170.299 0.586914 156.192 0.586914H127.232ZM145.865 14.6055H151.227C157.291 14.6055 160.982 17.7256 160.982 23.7461C160.982 29.8105 157.291 32.9307 151.095 32.9307H145.865V14.6055ZM204.796 64L219.43 38.4238H219.781V64H237.315V15.4844H219.781L205.147 40.3574H204.796V15.4844H187.218V64H204.796ZM245.973 0.586914V64H264.605V46.6855H273.658C288.468 46.6855 298.531 37.6768 298.531 23.7021C298.531 9.5957 289.039 0.586914 274.933 0.586914H245.973ZM264.605 14.6055H269.967C276.031 14.6055 279.723 17.7256 279.723 23.7461C279.723 29.8105 276.031 32.9307 269.835 32.9307H264.605V14.6055Z" fill="black"/>
<path d="M62.9844 154V90.5869H3.83398V154H22.4668V105.353H44.3516V154H62.9844ZM95.8994 155.23C111.764 155.23 121.432 146.134 121.432 129.698C121.432 113.658 111.544 104.254 95.8994 104.254C80.3428 104.254 70.4111 113.746 70.4111 129.698C70.4111 146.09 80.0791 155.23 95.8994 155.23ZM95.8994 142.354C91.373 142.354 88.6924 137.872 88.6924 129.742C88.6924 121.832 91.5049 117.13 95.8994 117.13C100.338 117.13 103.15 121.832 103.15 129.742C103.15 137.872 100.382 142.354 95.8994 142.354ZM174.825 123.634C173.727 111.637 164.806 104.254 151.534 104.254C136.065 104.254 126.529 113.878 126.529 129.698C126.529 145.694 136.021 155.23 151.622 155.23C165.289 155.23 173.99 148.023 174.825 135.851H158.478C157.73 139.63 155.357 141.827 151.842 141.827C147.096 141.827 144.547 137.608 144.547 129.698C144.547 121.876 147.14 117.657 151.842 117.657C155.138 117.657 157.555 119.854 158.39 123.634H174.825ZM202.247 142.662C199.083 142.662 196.93 141.124 196.93 138.487C196.93 136.114 198.863 134.488 202.291 134.225L209.938 133.697V136.861C209.938 140.421 206.246 142.662 202.247 142.662ZM195.523 154.703C201.148 154.703 207.037 152.242 209.586 147.496H209.938V154H227.516V120.821C227.516 110.978 218.507 104.254 205.06 104.254C190.909 104.254 182.12 110.802 181.681 121.173H197.765C198.028 118.712 200.401 116.69 204.093 116.69C207.477 116.69 209.938 118.448 209.938 121.7V124.073L199.303 124.732C186.339 125.523 179.176 130.577 179.176 139.894C179.176 148.639 186.69 154.703 195.523 154.703ZM267.945 140.904H253.004V140.553C255.113 137.081 255.86 133.39 256.168 128.995L256.827 118.492H267.945V140.904ZM248.478 166.305V154H276.383V166.305H292.599V140.904H285.875V105.484H241.93L240.611 127.545C240.216 134.093 239.205 139.234 235.646 140.904H232.262V166.305H248.478ZM331.095 127.457L347.398 105.484H327.535L315.714 123.194H315.362V105.484H297.345V154H315.362V135.587H315.714L327.843 154H348.98L331.095 127.457ZM370.382 154L385.016 128.424H385.367V154H402.901V105.484H385.367L370.733 130.357H370.382V105.484H352.804V154H370.382Z" fill="#E94281"/>
</svg>
